<svg width="14" height="37" viewBox="0 0 14 37" fill="none" xmlns="http://www.w3.org/2000/svg">
<path d="M5.92847 2.00167C5.92847 1.36325 6.45163 0.845703 7.09697 0.845703C7.74232 0.845703 8.26548 1.36325 8.26548 2.00167V35.6897C8.26548 36.3282 7.74232 36.8457 7.09697 36.8457C6.45163 36.8457 5.92847 36.3282 5.92847 35.6897V2.00167Z" fill="white"/>
<path d="M12.2617 28.9873C12.6365 28.5848 13.2701 28.5591 13.677 28.9298C14.0838 29.3006 14.1099 29.9274 13.7351 30.3299L8.0804 36.403C7.70564 36.8055 7.07202 36.8313 6.66516 36.4605C6.2583 36.0898 6.23228 35.463 6.60704 35.0605L12.2617 28.9873Z" fill="white"/>
<path d="M7.61162 35.1279C8.00276 35.5149 8.00276 36.1422 7.61162 36.5292C7.22048 36.9161 6.58632 36.9161 6.19518 36.5292L0.293354 30.6907C-0.0977845 30.3037 -0.0977848 29.6764 0.293354 29.2894C0.684493 28.9025 1.31865 28.9025 1.70979 29.2894L7.61162 35.1279Z" fill="white"/>
</svg>
